<svg width="152" height="152" viewBox="0 0 152 152" fill="none" xmlns="http://www.w3.org/2000/svg">
<path d="M58.5584 25.3556C51.3042 27.8439 44.6664 31.8555 39.0907 37.1211C33.515 42.3866 29.1306 48.7842 26.2317 55.8843C23.3328 62.9844 21.9867 70.6225 22.2837 78.2858C22.5807 85.9491 24.5139 93.4602 27.9536 100.315L33.56 97.5012C30.5217 91.4466 28.814 84.812 28.5517 78.0429C28.2894 71.2738 29.4784 64.5269 32.039 58.2554C34.5996 51.9838 38.4725 46.3327 43.3976 41.6815C48.3226 37.0304 54.1859 33.4869 60.5936 31.289L58.5584 25.3556Z" fill="#D9D9D9"/>
<path d="M55.9772 29.7126C55.2921 28.1215 56.0239 26.2669 57.6523 25.6757C66.6257 22.4177 76.325 21.6018 85.7502 23.3406C96.2058 25.2694 105.855 30.2554 113.477 37.6681C121.098 45.0807 126.351 54.587 128.57 64.9849C130.789 75.3828 129.875 86.2052 125.944 96.0836C122.012 105.962 115.24 114.453 106.482 120.482C97.7253 126.511 87.3769 129.808 76.7459 129.956C66.1149 130.104 55.6787 127.097 46.7571 121.313C38.7148 116.1 32.2288 108.843 27.9482 100.309C27.1714 98.7609 27.9141 96.9107 29.5052 96.2255C31.0963 95.5404 32.9324 96.2806 33.721 97.823C37.5028 105.219 43.1686 111.511 50.1696 116.049C58.05 121.158 67.2682 123.814 76.6586 123.684C86.049 123.553 95.1897 120.641 102.925 115.315C110.66 109.989 116.642 102.489 120.115 93.7637C123.588 85.0382 124.395 75.4787 122.435 66.2943C120.475 57.1099 115.835 48.7129 109.103 42.1654C102.37 35.6178 93.8475 31.2137 84.6121 29.5099C76.4073 27.9963 67.9674 28.6744 60.1378 31.449C58.5049 32.0276 56.6624 31.3037 55.9772 29.7126Z" fill="#DE0400"/>
<path d="M77.354 55.1619L77.3964 80.3463" stroke="#171717" stroke-width="6" stroke-linecap="round"/>
<path d="M56.3462 102.8L77.406 80.3465" stroke="#171717" stroke-width="6" stroke-linecap="round"/>
</svg>
