<svg width="33" height="30" viewBox="0 0 33 30" fill="none" xmlns="http://www.w3.org/2000/svg">
<path d="M2.46547 10.7658C-0.069782 14.5372 -1.0003 19.741 1.36314 23.6224C3.00643 26.321 5.98398 27.9886 9.0551 28.7303C12.1262 29.472 15.3277 29.396 18.4862 29.3161C23.1195 29.1987 28.4531 28.7269 31.1273 24.9413C33.5815 21.4671 32.6702 16.6988 31.3258 12.6631C29.9722 8.60082 28.135 4.45913 24.7129 1.88532C17.2154 -3.75508 6.70357 4.46197 2.46547 10.7658Z" fill="url(#paint0_linear_4755_540)"/>
<path d="M17.8269 24.4583V16.9274H20.3383L20.8158 13.8121H17.8269V11.7905C17.8269 10.9383 18.2442 10.1076 19.583 10.1076H20.9422V7.45549C20.9422 7.45549 19.7089 7.24512 18.53 7.24512C16.0685 7.24512 14.4592 8.73701 14.4592 11.4378V13.8121H11.7227V16.9274H14.4592V24.4583H17.8269Z" fill="white"/>
<defs>
<linearGradient id="paint0_linear_4755_540" x1="6.378" y1="6.18877" x2="28.2094" y2="28.0207" gradientUnits="userSpaceOnUse">
<stop stop-color="#1677F1"/>
<stop offset="0.1756" stop-color="#186EE9"/>
<stop offset="0.4613" stop-color="#1E56D3"/>
<stop offset="0.8194" stop-color="#262EB0"/>
<stop offset="1" stop-color="#2B189C"/>
</linearGradient>
</defs>
</svg>
