<svg width="33" height="30" viewBox="0 0 33 30" fill="none" xmlns="http://www.w3.org/2000/svg">
<path d="M2.46535 10.7658C-0.0699074 14.5372 -1.00042 19.741 1.36359 23.6224C3.00688 26.321 5.98443 27.9886 9.05555 28.7303C12.1267 29.472 15.3282 29.396 18.4866 29.3161C23.1199 29.1987 28.4536 28.7269 31.1278 24.9413C33.5819 21.4671 32.6707 16.6988 31.3262 12.6631C29.9727 8.60082 28.1355 4.45913 24.7133 1.88532C17.2153 -3.75508 6.70344 4.46197 2.46535 10.7658Z" fill="url(#paint0_linear_4755_534)"/>
<path d="M20.055 11.3301C19.5996 11.3301 19.2305 11.6992 19.2305 12.1546C19.2305 12.6099 19.5996 12.979 20.055 12.979C20.5103 12.979 20.8794 12.6099 20.8794 12.1546C20.8794 11.6992 20.5103 11.3301 20.055 11.3301Z" fill="white"/>
<path d="M16.3883 12.3877C14.4785 12.3877 12.9248 13.9414 12.9248 15.8512C12.9248 17.761 14.4785 19.3147 16.3883 19.3147C18.2981 19.3147 19.8518 17.761 19.8518 15.8512C19.8518 13.9414 18.2981 12.3877 16.3883 12.3877ZM16.3883 18.07C15.1646 18.07 14.1695 17.0749 14.1695 15.8512C14.1695 14.6275 15.1646 13.6324 16.3883 13.6324C17.612 13.6324 18.6072 14.6275 18.6072 15.8512C18.6072 17.0749 17.6114 18.07 16.3883 18.07Z" fill="white"/>
<path d="M19.1387 22.8837H13.5233C11.1939 22.8837 9.29883 20.9887 9.29883 18.6593V13.0438C9.29883 10.7144 11.1939 8.81934 13.5233 8.81934H19.1387C21.4682 8.81934 23.3638 10.7144 23.3638 13.0438V18.6593C23.3638 20.9887 21.4682 22.8837 19.1387 22.8837ZM13.5239 10.1422C11.9237 10.1422 10.6223 11.4436 10.6223 13.0438V18.6593C10.6223 20.2595 11.9237 21.5608 13.5239 21.5608H19.1393C20.7395 21.5608 22.0409 20.2595 22.0409 18.6593V13.0438C22.0409 11.4436 20.739 10.1422 19.1393 10.1422H13.5239Z" fill="white"/>
<defs>
<linearGradient id="paint0_linear_4755_534" x1="6.37788" y1="6.18876" x2="28.2093" y2="28.0207" gradientUnits="userSpaceOnUse">
<stop offset="0.0011" stop-color="#FFE185"/>
<stop offset="0.2094" stop-color="#FFBB36"/>
<stop offset="0.3765" stop-color="#FF5176"/>
<stop offset="0.5238" stop-color="#F63395"/>
<stop offset="0.7394" stop-color="#A436D2"/>
<stop offset="1" stop-color="#5F4EED"/>
</linearGradient>
</defs>
</svg>
