<svg width="76" height="70" viewBox="0 0 76 70" fill="none" xmlns="http://www.w3.org/2000/svg">
<path d="M59.3257 5C67.7932 5.00024 73.0857 14.1668 68.8521 21.5C64.6245 28.8223 61.3248 34.5362 58.0259 40.25C54.727 45.9638 51.4282 51.6778 47.2007 59C42.9668 66.3331 32.3829 66.3331 28.1489 59L6.49756 21.5C2.26381 14.1667 7.55624 5.00011 16.0239 5H59.3257Z" fill="#DE0400" stroke="#FFD9E8" stroke-width="10"/>
<path d="M36.9682 41.2528C37.3587 41.6433 37.9919 41.6433 38.3824 41.2528L44.7464 34.8888C45.1369 34.4983 45.1369 33.8651 44.7464 33.4746C44.3558 33.0841 43.7227 33.0841 43.3321 33.4746L37.6753 39.1314L32.0184 33.4746C31.6279 33.0841 30.9947 33.0841 30.6042 33.4746C30.2137 33.8651 30.2137 34.4983 30.6042 34.8888L36.9682 41.2528ZM37.6753 19.4307L36.6753 19.4307L36.6753 40.5457L37.6753 40.5457L38.6753 40.5457L38.6753 19.4307L37.6753 19.4307Z" fill="white"/>
</svg>
