<svg width="33" height="30" viewBox="0 0 33 30" fill="none" xmlns="http://www.w3.org/2000/svg">
<path d="M2.46535 10.7658C-0.0699074 14.5372 -1.00042 19.741 1.36359 23.6224C3.00688 26.321 5.985 27.9886 9.05555 28.7303C12.1267 29.472 15.3282 29.396 18.4866 29.3161C23.12 29.1987 28.4536 28.7269 31.1278 24.9413C33.5819 21.4671 32.6712 16.6988 31.3262 12.6631C29.9727 8.60082 28.1355 4.45913 24.7133 1.88532C17.2147 -3.75508 6.70344 4.46197 2.46535 10.7658Z" fill="url(#paint0_linear_4755_543)"/>
<path d="M17.4771 14.9024L21.959 9.69238H20.897L17.0053 14.2163L13.8974 9.69238H10.3125L15.0127 16.5332L10.3125 21.9967H11.3746L15.4845 17.2193L18.7671 21.9967H22.352L17.4771 14.9024ZM16.0221 16.5933L15.5458 15.9123L11.7568 10.4925H13.3881L16.4462 14.8667L16.9225 15.5477L20.8975 21.2334H19.2661L16.0221 16.5933Z" fill="white"/>
<defs>
<linearGradient id="paint0_linear_4755_543" x1="6.37757" y1="6.18871" x2="28.209" y2="28.0207" gradientUnits="userSpaceOnUse">
<stop stop-color="#23004A"/>
<stop offset="0.9565" stop-color="#020003"/>
<stop offset="1"/>
</linearGradient>
</defs>
</svg>
