<svg width="33" height="30" viewBox="0 0 33 30" fill="none" xmlns="http://www.w3.org/2000/svg">
<path d="M2.46535 10.7659C-0.0699074 14.5373 -1.00042 19.7411 1.36359 23.6225C3.00688 26.321 5.985 27.9887 9.05555 28.7304C12.1267 29.4721 15.3282 29.3961 18.4866 29.3162C23.12 29.1988 28.4536 28.727 31.1278 24.9414C33.5819 21.4671 32.6712 16.6989 31.3262 12.6632C29.9727 8.6009 28.1355 4.4592 24.7133 1.88539C17.2147 -3.755 6.70344 4.46147 2.46535 10.7659Z" fill="url(#paint0_linear_4755_531)"/>
<path d="M22.8941 13.9079C22.8941 12.3174 21.6046 11.0273 20.0135 11.0273H12.6482C11.057 11.0273 9.76758 12.3168 9.76758 13.9079V17.3357C9.76758 18.9268 11.057 20.2163 12.6482 20.2163H20.0135C21.6046 20.2163 22.8941 18.9268 22.8941 17.3357V13.9079ZM18.5624 15.8784L15.2594 17.5126C15.1301 17.5829 14.6901 17.4888 14.6901 17.342V13.9879C14.6901 13.8388 15.1335 13.7452 15.2634 13.8189L18.4252 15.5393C18.5573 15.6142 18.6968 15.8058 18.5624 15.8784Z" fill="white"/>
<defs>
<linearGradient id="paint0_linear_4755_531" x1="6.37752" y1="6.18851" x2="28.209" y2="28.0205" gradientUnits="userSpaceOnUse">
<stop stop-color="#FF0000"/>
<stop offset="1" stop-color="#9B0000"/>
</linearGradient>
</defs>
</svg>
