<svg width="17" height="17" viewBox="0 0 17 17" fill="none" xmlns="http://www.w3.org/2000/svg">
<path d="M16.8087 8.81698C16.8087 13.2519 13.2036 16.8472 8.75644 16.8472C4.30928 16.8472 0.704163 13.2519 0.704163 8.81698C0.704163 4.38202 4.30928 0.786804 8.75644 0.786804C13.2036 0.786804 16.8087 4.38202 16.8087 8.81698ZM7.82504 13.0689L13.7993 7.11102C14.0022 6.90871 14.0022 6.58067 13.7993 6.37836L13.0646 5.64571C12.8618 5.44337 12.5328 5.44337 12.3299 5.64571L7.45769 10.5045L5.18295 8.23605C4.98008 8.03375 4.65114 8.03375 4.44824 8.23605L3.71357 8.96871C3.51071 9.17102 3.51071 9.49906 3.71357 9.70137L7.09033 13.0689C7.29323 13.2712 7.62214 13.2712 7.82504 13.0689Z" fill="#DE0400"/>
</svg>
