<svg width="34" height="24" viewBox="0 0 34 24" fill="none" xmlns="http://www.w3.org/2000/svg">
<path d="M29.2074 23.2744C29.2074 23.2744 20.1286 23.528 17.1014 23.528C14.0743 23.528 4.99546 23.2744 4.99546 23.2744C2.65068 23.2744 0.73214 21.3558 0.73214 19.0111C0.73214 19.0111 0.478516 13.6765 0.478516 11.895C0.478516 10.1135 0.73214 4.77891 0.73214 4.77891C0.73214 2.43412 2.65068 0.515586 4.99546 0.515586C4.99546 0.515586 14.0743 0.261963 17.1014 0.261963C20.1286 0.261963 29.2074 0.515586 29.2074 0.515586C31.5522 0.515586 33.4707 2.43412 33.4707 4.77891C33.4707 4.77891 33.7244 10.109 33.7244 11.895C33.7244 13.6811 33.4707 19.0111 33.4707 19.0111C33.4707 21.3558 31.5522 23.2744 29.2074 23.2744Z" fill="#FF0000"/>
<path fill-rule="evenodd" clip-rule="evenodd" d="M13.918 17.0934V6.69666L22.3174 11.8942L13.918 17.0934Z" fill="#F4FFFC"/>
</svg>
